<svg xmlns="http://www.w3.org/2000/svg" style="display:none">
	<symbol id="icon-tree-shakeable" viewBox="0 0 23 21">
		<g fill="#1a936f">
			<path d="M11.95 15.89v.72A4.64 4.64 0 0 0 16 11.92c0-2.48-.53-5.27-1.41-7.44C13.69 2.27 12.56 1 11.5 1S9.31 2.26 8.41 4.46A20.82 20.82 0 0 0 7 11.92a4.64 4.64 0 0 0 4.05 4.69v-1.66L9.38 13.2a.49.49 0 0 1 0-.66.43.43 0 0 1 .64 0l1.03 1.08v-3.57c0-.26.2-.47.45-.47s.45.21.45.47v1.22l.58-.61a.43.43 0 0 1 .64 0 .49.49 0 0 1 0 .66l-1.22 1.28v1.96l1.03-1.08a.43.43 0 0 1 .63 0 .49.49 0 0 1 0 .66l-1.66 1.75zm.05 1.8l-.5-.05-.5.05v-.1l-.04-.01a5.6 5.6 0 0 1-4.9-5.66c0-2.62.55-5.54 1.48-7.84C8.57 1.56 9.94.02 11.5.02s2.93 1.54 3.96 4.08c.94 2.3 1.49 5.21 1.49 7.82a5.6 5.6 0 0 1-4.9 5.66H12v.1z"/>
			<path d="M11.03 16.61h.94v3.9a.48.48 0 0 1-.47.49.48.48 0 0 1-.47-.49v-3.9z"/>
		</g>
		<path fill="#444444" d="M19.95 16L21 13.89l-.95-1.97L21 10l-.95-1.92.95-1.97L19.95 4l-.85.43.85 1.68L19 8.08l.95 1.92-.95 1.92.95 1.97-.86 1.68zm2 0L23 13.89l-.95-1.97L23 10l-.95-1.92.95-1.97-.46-.92L21.95 4l-.85.43.85 1.68L21 8.08l.95 1.92-.95 1.92.95 1.97-.86 1.68zm-20.9 0L0 13.89l.95-1.97L0 10l.95-1.92L0 6.11 1.05 4l.85.43-.85 1.68L2 8.08 1.05 10 2 11.92l-.95 1.97.85 1.68zm1.97 0L2 13.89l.93-1.97L2 10l.93-1.92L2 6.11 3.02 4l.84.43-.79 1.68L4 8.08 3.07 10 4 11.92l-.93 1.97.79 1.68z"/>
	</symbol>
	<symbol id="icon-side-effect-free" viewBox="0 0 20 20">
		<g fill-rule="nonzero">
			<path d="M9.65 6.54a3.12 3.12 0 1 0 .01 6.24 3.12 3.12 0 0 0 0-6.24zm0 .7a2.42 2.42 0 1 1 0 4.84 2.42 2.42 0 1 1 0-4.85z" stroke="#444444" fill="var(--ico)"/>
			<path d="M6.2 6.54a.38.38 0 0 0 .34-.38v-3.2a.38.38 0 1 0-.75 0v2.29L1.65 1.1a.38.38 0 0 0-.54.53L5.26 5.8H2.98a.38.38 0 1 0 0 .75H6.2zM17.06 6.54a.38.38 0 1 0-.04-.75h-2.28l4.15-4.15a.38.38 0 1 0-.54-.53l-4.14 4.14V2.97a.38.38 0 1 0-.75 0v3.2c0 .2.17.37.38.37h3.22zM1.4 19c.1 0 .19-.05.26-.12l4.13-4.14v2.29a.38.38 0 1 0 .75 0v-3.2c0-.2-.17-.37-.38-.37H2.98a.38.38 0 1 0 0 .75h2.28l-4.14 4.14a.38.38 0 0 0 .28.65zM18.65 19a.38.38 0 0 0 .23-.65l-4.14-4.14h2.28a.38.38 0 1 0 0-.75h-3.18c-.21 0-.38.17-.38.38v3.19a.38.38 0 1 0 .75 0v-2.29l4.13 4.14c.08.09.2.13.31.12z" stroke="#1a936f" stroke-width="0.5" fill="#1a936f"/>
		</g>
	</symbol>
	<symbol id="icon-zero-deps" viewBox="0 0 20 18">
		<g fill-rule="evenodd">
			<g transform="translate(-514, -242)" fill-rule="nonzero">
			<g transform="translate(155, 171)">
			<g transform="translate(359, 71)">
			<g>
				<path d="M9.562,9 C7.077,9 5.062,6.985 5.062,4.5 C5.062,2.014 7.077,0 9.562,0 C12.047,0 14.062,2.014 14.062,4.5 C14.062,6.985 12.047,9 9.562,9 Z M9.562,7.875 C11.426,7.875 12.937,6.363 12.937,4.5 C12.937,2.636 11.426,1.125 9.562,1.125 C7.698,1.125 6.187,2.636 6.187,4.5 C6.187,6.363 7.698,7.875 9.562,7.875 Z" fill="#444444"/>
				<path d="M9.562,18 C7.077,18 5.062,15.985 5.062,13.5 C5.062,11.014 7.077,9 9.562,9 C12.047,9 14.062,11.014 14.062,13.5 C14.062,15.985 12.047,18 9.562,18 Z M9.562,16.875 C11.426,16.875 12.937,15.363 12.937,13.5 C12.937,11.636 11.426,10.125 9.562,10.125 C7.698,10.125 6.187,11.636 6.187,13.5 C6.187,15.363 7.698,16.875 9.562,16.875 Z" fill="#444444"/>
				<path d="M14.625,13.5 C12.139,13.5 10.125,11.485 10.125,9 C10.125,6.514 12.139,4.5 14.625,4.5 C17.11,4.5 19.125,6.514 19.125,9 C19.125,11.485 17.11,13.5 14.625,13.5 Z M14.625,12.375 C16.488,12.375 18,10.863 18,9 C18,7.136 16.488,5.625 14.625,5.625 C12.761,5.625 11.25,7.136 11.25,9 C11.25,10.863 12.761,12.375 14.625,12.375 Z" fill="#444444"/>
				<path d="M4.5,13.5 C2.014,13.5 0,11.485 0,9 C0,6.514 2.014,4.5 4.5,4.5 C6.985,4.5 9,6.514 9,9 C9,11.485 6.985,13.5 4.5,13.5 Z M4.5,12.375 C6.363,12.375 7.875,10.863 7.875,9 C7.875,7.136 6.363,5.625 4.5,5.625 C2.636,5.625 1.125,7.136 1.125,9 C1.125,10.863 2.636,12.375 4.5,12.375 Z" fill="#444444"/>
				<path d="M9.562,13.5 C7.077,13.5 5.062,11.485 5.062,9 C5.062,6.514 7.077,4.5 9.562,4.5 C12.047,4.5 14.062,6.514 14.062,9 C14.062,11.485 12.047,13.5 9.562,13.5 Z M9.562,12.375 C11.426,12.375 12.937,10.863 12.937,9 C12.937,7.136 11.426,5.625 9.562,5.625 C7.698,5.625 6.187,7.136 6.187,9 C6.187,10.863 7.698,12.375 9.562,12.375 Z" fill="#1a936f"/>
			</g>
			<circle fill="#1a936f" cx="9.562" cy="9" r="3.375"/>
			</g>
			</g>
			</g>
		</g>
	</symbol>
	<symbol id="icon-npm" viewBox="0 0 31 12">
		<g fill="#1a936f" fill-rule="nonzero">
			<path d="M0 .43v10.33h8.61v1.73h6.89v-1.73H31V.43H0zm8.61 8.6H6.89V3.88H5.17v5.17H1.72V2.15h6.89v6.89zm5.17 0v1.73h-3.45v-8.6h6.9v6.88h-3.45zm15.5 0h-1.72V3.88h-1.73v5.17h-1.72V3.87h-1.72v5.17h-3.45V2.15h10.34v6.89z"/>
			<path d="M13.78 3.88h1.72v3.44h-1.72z"/>
		</g>
	</symbol>
	<symbol id="icon-github" viewBox="0 0 33 33">
		<path d="M16.6.46C7.6.46.33 7.76.33 16.76c0 7.17 4.67 13.3 11.14 15.43.8.1 1.1-.4 1.1-.8v-2.8c-4.54.9-5.5-2.2-5.5-2.2-.74-1.9-1.8-2.4-1.8-2.4-1.48-1 .1-1 .1-1 1.64.1 2.5 1.7 2.5 1.7 1.45 2.4 3.8 1.7 4.74 1.3.2-1.1.6-1.8 1.1-2.2-3.6-.4-7.4-1.8-7.4-8.1 0-1.8.7-3.28 1.7-4.4-.1-.4-.7-2.1.2-4.3 0 0 1.4-.48 4.5 1.63 1.3-.36 2.7-.54 4.1-.55 1.4 0 2.8.2 4.1.57 3.1-2.1 4.48-1.7 4.48-1.7.9 2.24.33 3.9.17 4.3 1 1.2 1.6 2.64 1.6 4.44 0 6.23-3.8 7.6-7.43 8 .6.5 1.1 1.5 1.1 3.04v4.47c0 .43.27.94 1.1.8 6.45-2.1 11.1-8.2 11.1-15.4 0-9-7.3-16.3-16.3-16.3" fill="#1a936f"/>
	</symbol>
	<symbol id="icon-wiki" viewBox="-5 -10 110 135">
		<g fill="#1a936f" fill-rule="nonzero">
			<path d="m82.656 8.187c0-1.281-1.046-2.343-2.343-2.343h-43.766v62.562h41.422v14.891h-15.141v-7.453c0-1.296-1.062-2.343-2.343-2.343h-14.391c-1.296 0-2.343 1.046-2.343 2.343v7.453h-11c-9.273-0.23-10.07-13.52-0.89-14.828v-4.703-57.703c-6.375 1.109-11.234 6.703-11.234 13.375v56.406c0 6.687 5.437 12.141 12.125 12.141h11v3.828c-0.05 1.726 1.996 2.933 3.484 2.046l6.046-3.359 6.062 3.359c1.48 0.867 3.531-0.308 3.484-2.046v-3.828h17.484c1.296 0 2.343-1.046 2.343-2.343v-77.453zm-23.188 8.890c8.804 0.277 8.785 13.047 0 13.328-8.789-0.285-8.8-13.051 0-13.328zm6.656 33.438c-0.277 8.793-13.035 8.796-13.312 0v-10.859c0-3.671 2.984-6.656 6.656-6.656s6.656 2.984 6.656 6.656z"/>
			<path d="m59.469 25.719c2.582-0.042 2.597-3.906 0-3.953-2.593 0.054-2.578 3.902 0 3.953z"/>
			<path d="m59.469 37.688c-1.078 0-1.968 0.89-1.968 1.968v10.859c0.046 2.585 3.902 2.589 3.937 0v-10.859c0-1.078-0.875-1.968-1.968-1.968z"/>
		</g>
	</symbol>
</svg>
